<svg xmlns="http://www.w3.org/2000/svg" width="1200" height="630" viewBox="0 0 1200 630"><rect width="1200" height="630" fill="#080b10"/><g stroke="#26303d" opacity=".5"><path d="M0 90h1200M0 180h1200M0 270h1200M0 360h1200M0 450h1200M0 540h1200"/><path d="M120 0v630M240 0v630M360 0v630M480 0v630M600 0v630M720 0v630M840 0v630M960 0v630M1080 0v630"/></g><path d="M85 335h150l55-190 105 365 85-220h220" fill="none" stroke="#22d3ee" stroke-width="16" stroke-linecap="round" stroke-linejoin="round"/><text x="85" y="110" fill="#93a0b2" font-family="monospace" font-size="24" letter-spacing="5">LOCAL LLM MEASUREMENT</text><text x="730" y="300" fill="#f4f7fb" font-family="Arial,sans-serif" font-size="58" font-weight="700">TokenCalculator.dev</text><text x="735" y="360" fill="#93a0b2" font-family="Arial,sans-serif" font-size="28">Tokens · input cost · context fit</text></svg>
