<svg xmlns="http://www.w3.org/2000/svg" width="1200" height="630" viewBox="0 0 1200 630">
  <rect width="1200" height="630" fill="#f6f7f9"/>
  <rect x="72" y="72" width="1056" height="486" rx="24" fill="#fff" stroke="#d9dde3" stroke-width="2"/>
  <g transform="translate(122 235) scale(4.5)">
    <rect x="1" y="1" width="30" height="30" rx="8" fill="#fff" stroke="#cbd0d7"/>
    <path d="M12 8H9.5A2.5 2.5 0 0 0 7 10.5v11A2.5 2.5 0 0 0 9.5 24H12M20 8h2.5a2.5 2.5 0 0 1 2.5 2.5v11a2.5 2.5 0 0 1-2.5 2.5H20" fill="none" stroke="#16181c" stroke-width="1.6" stroke-linecap="round"/>
    <rect x="11" y="11" width="4" height="4" rx="1" fill="#087ea4"/><rect x="17" y="11" width="4" height="4" rx="1" fill="#16181c"/><rect x="11" y="17" width="10" height="4" rx="1" fill="#b9e5f2"/>
  </g>
  <text x="360" y="245" fill="#087ea4" font-family="monospace" font-size="20" font-weight="700" letter-spacing="3">LOCAL LLM TOKEN COUNTER</text>
  <text x="360" y="325" fill="#16181c" font-family="Arial,sans-serif" font-size="58" font-weight="700">TokenCalculator.dev</text>
  <text x="364" y="382" fill="#69717d" font-family="Arial,sans-serif" font-size="28">Text, files and images. Measured locally.</text>
</svg>
